# xmcd
#
# Track frame offsets: 
#        150
#        8790
#        27126
#        33421
#        51607
#        69695
#        78060
#        93203
#        104126
#        121139
#        141379
#        173236
#        202219
#
# Disc length: 2700 seconds
#
# Revision: 0
# Processed by: cddbd v1.5.1PL0 Copyright (c) Steve Scherf et al.
# Submitted via: ExactAudioCopy v0.95a4
#
DISCID=b60a8a0d
DTITLE=Greenfield Main - Barnburners and Heartchurners
DYEAR=2004
DGENRE=Country
TTITLE0=Matilda
TTITLE1=Red River Valley
TTITLE2=Fiery Mountain
TTITLE3=Down East
TTITLE4=Under The Gun
TTITLE5=Formaldehyde
TTITLE6=Fireworks Display
TTITLE7=I'll Take A Chance
TTITLE8=Have Mercy
TTITLE9=To The Sea
TTITLE10=Breeze Us, Jesus
TTITLE11=Wait On Me
TTITLE12=Hidden Track
EXTD=
EXTT0=
EXTT1=
EXTT2=
EXTT3=
EXTT4=
EXTT5=
EXTT6=
EXTT7=
EXTT8=
EXTT9=
EXTT10=
EXTT11=
EXTT12=
PLAYORDER=
